<?xml version="1.0" encoding="utf-8"?>
<!-- Generator: Adobe Illustrator 15.1.0, SVG Export Plug-In . SVG Version: 6.00 Build 0)  -->
<!DOCTYPE svg PUBLIC "-//W3C//DTD SVG 1.1//EN" "http://www.w3.org/Graphics/SVG/1.1/DTD/svg11.dtd">
<svg version="1.1" id="Layer_1" xmlns="http://www.w3.org/2000/svg" xmlns:xlink="http://www.w3.org/1999/xlink" x="0px" y="0px"
	 width="184px" height="51.46px" viewBox="0 0 184 51.46" enable-background="new 0 0 184 51.46" xml:space="preserve">
<g>
	<g>
		<path d="M82.295,7.278c-0.377-0.294-0.805-0.494-1.276-0.597C80.769,6.626,80.506,0,80.231,0c-0.293,0-0.574,6.629-0.839,6.689
			c-0.46,0.104-0.875,0.297-1.241,0.579c-0.792,0.608-0.958,1.326-0.958,1.821c0,0.733,0.333,1.372,0.961,1.848
			c0.576,0.436,1.274,0.658,2.076,0.658c0.804,0,1.5-0.223,2.071-0.661c0.782-0.602,0.947-1.319,0.947-1.814
			C83.249,8.402,82.919,7.765,82.295,7.278z"/>
	</g>
	<g>
		<polygon points="77.705,30.46 82.545,30.46 81.686,12.301 78.534,12.851 		"/>
	</g>
	<g>
		<path d="M71.694,30.817h-4.196V2.903l4.196-0.841V30.817z"/>
		<path d="M3.509,30.368L0,31.659V2.903l4.12-0.841v12.539c1.186-0.691,2.415-1.199,3.687-1.526c1.271-0.326,2.661-0.489,4.17-0.489
			c3.137,0,5.726,0.868,7.769,2.602c2.042,1.733,3.064,3.938,3.064,6.611c0,2.947-1.161,5.321-3.483,7.12
			c-2.323,1.8-5.391,2.7-9.206,2.7c-1.169,0-2.289-0.101-3.356-0.302C5.696,31.114,4.611,30.799,3.509,30.368z M4.12,27.942
			c1.068,0.392,2.098,0.688,3.089,0.89c0.992,0.203,1.945,0.304,2.861,0.304c2.56,0,4.624-0.662,6.193-1.986
			c1.567-1.323,2.351-3.081,2.351-5.271c0-2.086-0.695-3.756-2.084-5.007c-1.391-1.252-3.23-1.879-5.519-1.879
			c-1.187,0-2.339,0.197-3.458,0.587c-1.119,0.391-2.264,0.997-3.433,1.819V27.942z"/>
		<path d="M46.785,25.927l-0.229,3.169c-1.408,0.821-2.904,1.448-4.489,1.877c-1.585,0.431-3.208,0.646-4.869,0.646
			c-3.476,0-6.324-0.848-8.545-2.542c-2.221-1.696-3.332-3.866-3.332-6.514c0-2.96,1.183-5.396,3.547-7.306
			c2.365-1.911,5.344-2.866,8.939-2.866c3.204,0,5.734,0.74,7.59,2.22s2.785,3.505,2.785,6.073c0,0.079-0.009,0.2-0.026,0.362
			c-0.018,0.163-0.025,0.297-0.025,0.401l-0.484,0.802L29.34,22.719c0.22,2.034,1.026,3.593,2.416,4.676
			c1.39,1.083,3.272,1.624,5.646,1.624c1.492,0,3.009-0.255,4.552-0.764C43.496,27.747,45.107,26.971,46.785,25.927z M44.369,20.039
			c-0.067-1.604-0.721-2.892-1.958-3.863c-1.237-0.972-2.839-1.458-4.806-1.458c-2.018,0-3.776,0.535-5.276,1.604
			c-1.5,1.069-2.412,2.458-2.734,4.166L44.369,20.039z"/>
		<path d="M56.392,30.817H52.17V13.193h4.12v2.68c1.407-1.095,2.874-1.911,4.399-2.445c1.526-0.535,3.153-0.802,4.882-0.802v3.169
			c-3.391,0.196-5.769,0.773-7.133,1.731c-1.365,0.958-2.047,2.546-2.047,4.763V30.817z"/>
		<path d="M92.636,30.817h-4.12V13.193h4.12v3.56c1.356-1.317,2.847-2.321,4.475-3.012c1.627-0.691,3.314-1.037,5.061-1.037
			c2.628,0,4.628,0.616,6.001,1.849s2.061,3.022,2.061,5.37v10.896h-4.095V20.313c0-1.669-0.395-2.892-1.182-3.667
			c-0.789-0.776-2.031-1.164-3.726-1.164c-2.458,0-4.505,0.649-6.141,1.946c-1.637,1.298-2.454,3.022-2.454,5.174V30.817z"/>
	</g>
</g>
<g>
	<path d="M136.465,9.574c-2.09-1.782-4.706-2.686-7.777-2.686c-3.203,0-5.912,0.849-8.055,2.523
		c-2.187,1.709-3.295,3.879-3.295,6.447c0,2.639,1.007,4.824,2.992,6.494c1.951,1.643,4.493,2.476,7.55,2.476
		c0.243,0,0.509-0.009,0.79-0.027c-1.136,1.144-2.166,2.11-3.181,2.984c-0.824,0.711-1.707,1.408-2.641,2.145
		c-0.797,0.627-1.619,1.079-2.485,1.797l-1.123,0.732h8.69l0.137,0.088c3.981-3.271,6.814-5.999,8.658-8.541
		c1.949-2.688,2.938-5.206,2.938-7.586C139.663,13.651,138.587,11.382,136.465,9.574z M124.937,13.051
		c1-0.846,2.186-1.258,3.626-1.258c1.396,0,2.554,0.411,3.539,1.256c0.955,0.82,1.422,1.782,1.422,2.941
		c0,1.171-0.461,2.137-1.411,2.95c-0.979,0.839-2.141,1.247-3.55,1.247c-1.44,0-2.626-0.411-3.626-1.257
		c-0.968-0.82-1.439-1.781-1.439-2.94C123.498,14.832,123.969,13.871,124.937,13.051z"/>
	<path d="M159.705,9.574c-2.09-1.782-4.708-2.686-7.78-2.686c-3.201,0-5.911,0.849-8.053,2.523
		c-2.187,1.709-3.296,3.879-3.296,6.447c0,2.639,1.007,4.824,2.991,6.494c1.953,1.643,4.492,2.476,7.55,2.476
		c0.244,0,0.509-0.009,0.792-0.027c-1.138,1.144-2.168,2.11-3.183,2.984c-0.823,0.711-1.706,1.408-2.641,2.145
		c-0.796,0.627-1.618,1.079-2.483,1.797l-1.123,0.732h8.688l0.137,0.088c3.983-3.273,6.815-5.999,8.659-8.541
		c1.949-2.688,2.938-5.206,2.938-7.586C162.901,13.651,161.825,11.382,159.705,9.574z M148.174,13.051
		c1.001-0.846,2.188-1.258,3.626-1.258c1.396,0,2.555,0.411,3.54,1.256c0.956,0.82,1.422,1.783,1.422,2.941
		c0,1.171-0.462,2.137-1.411,2.95c-0.978,0.839-2.141,1.247-3.551,1.247c-1.439,0-2.625-0.411-3.626-1.257
		c-0.967-0.82-1.439-1.781-1.439-2.94C146.735,14.832,147.208,13.871,148.174,13.051z"/>
</g>
<g>
	<path d="M50.572,45.771c-0.003,0.013-0.019,0.185-0.085,0.118L50.4,45.861l-0.117,0.034c-0.423,0.012-0.854,0.075-1.282,0.159
		c-0.417,0.082-0.835,0.18-1.256,0.278c-0.414,0.098-0.826,0.189-1.237,0.271c-0.36,0.071-0.719,0.116-1.065,0.132
		c-0.025-0.064-0.048-0.142-0.068-0.233c-0.029-0.121-0.054-0.255-0.078-0.404c-0.024-0.152-0.044-0.298-0.059-0.438
		c-0.017-0.139-0.028-0.266-0.038-0.375c-0.008-0.109-0.021-0.182-0.029-0.162c0,0,0.015-0.019,0.064-0.046
		c0.11-0.06,0.266-0.118,0.463-0.173c0.208-0.06,0.447-0.111,0.721-0.158c0.281-0.048,0.575-0.09,0.883-0.128
		c0.31-0.038,0.625-0.072,0.945-0.102c0.32-0.03,0.624-0.056,0.911-0.078c0.286-0.023,0.547-0.043,0.82-0.061l0.477-0.038
		c0.219,0.028,0.334,0.016,0.438-0.039c0.129-0.071,0.205-0.204,0.208-0.367c0-0.09-0.014-0.192-0.046-0.317
		c-0.022-0.085-0.036-0.188-0.044-0.305l-0.015-0.233l-0.231-0.013c-0.504-0.025-1-0.007-1.492,0.061
		c-0.48,0.068-0.944,0.147-1.422,0.239c-0.474,0.091-0.915,0.18-1.39,0.268c-0.455,0.087-1.074,0.139-1.556,0.157
		c-0.047,0-0.156-0.01-0.156-0.01v-0.01c0-0.035,0.067-0.095,0.063-0.141c-0.007-0.084-0.042-0.203-0.062-0.277
		c-0.031-0.108-0.039,0.084-0.123,0.016c-0.091-0.075-0.155,0.091-0.341,0.091c-0.001,0-0.003,0-0.004,0
		c-0.257,0-0.434-0.137-0.551-0.027c-0.135,0.121-0.197,0.291-0.189,0.558c0.01,0.322,0.05,0.547,0.12,0.851
		c0.066,0.297,0.141,0.545,0.222,0.844c0.079,0.287,0.151,0.553,0.216,0.845c0.054,0.242,0.088,0.479,0.102,0.729
		c-0.1,0.101-0.192,0.187-0.279,0.27c-0.143,0.138-0.233,0.259-0.276,0.38c-0.071,0.196,0.001,0.393,0.19,0.516
		c0.09,0.059,0.217,0.1,0.398,0.131l0.049,1.604l0.069,0.266l0.267-0.009c0.041,0,0.083,0.002,0.129,0.005l0.229,0.006
		c0.084,0,0.168-0.012,0.244-0.031c0.107-0.029,0.202-0.087,0.281-0.17l0.072-0.076l0.055-2.1c0.038-0.025,0.109-0.066,0.238-0.106
		c0.215-0.067,0.47-0.137,0.76-0.19c0.303-0.059,0.632-0.128,0.989-0.178c0.364-0.052,0.721-0.14,1.07-0.199
		c0.358-0.06,0.69-0.193,0.985-0.271c0.324-0.086,0.577-0.544,0.771-0.661l0.833-0.983h-0.71L50.572,45.771z M45.167,50.129
		c0.004-0.001,0.008-0.006,0.012-0.008v0.04L45.167,50.129z"/>
	<path d="M57.32,46.412c0.005-0.514,0.004-1.023-0.003-1.532c-0.006-0.502-0.035-1.021-0.085-1.54l-0.013-0.127l-0.107-0.07
		c-0.096-0.062-0.188-0.114-0.277-0.151c-0.094-0.041-0.188-0.061-0.279-0.061l-0.069,0.004c-0.126,0.014-0.24,0.066-0.339,0.157
		c-0.092,0.085-0.161,0.206-0.205,0.362l-0.011,0.073c0.001,0.421,0,0.847-0.008,1.274c-0.006,0.418-0.033,0.83-0.08,1.225
		c-0.045,0.384-0.121,0.748-0.222,1.084c-0.097,0.32-0.237,0.601-0.414,0.833c-0.174,0.228-0.391,0.402-0.665,0.535
		c-0.265,0.128-0.601,0.192-1.014,0.193c-0.265-0.02-0.46-0.091-0.58-0.211c-0.133-0.134-0.22-0.3-0.265-0.508
		c-0.051-0.228-0.062-0.487-0.034-0.772c0.03-0.308,0.075-0.619,0.134-0.936c0.062-0.321,0.125-0.634,0.19-0.933
		c0.066-0.312,0.108-0.59,0.125-0.829c0.02-0.275-0.011-0.492-0.094-0.663c-0.055-0.111-0.195-0.298-0.521-0.298
		c-0.042,0-0.088,0.003-0.111,0.007l-0.141,0.01c-0.099,0.006-0.155,0.015-0.201,0.029l-0.176,0.056l-0.009,0.183
		c-0.018,0.329-0.064,0.701-0.137,1.106c-0.077,0.42-0.147,0.843-0.211,1.275c-0.064,0.431-0.109,0.858-0.132,1.274
		c-0.023,0.437,0.015,0.836,0.111,1.183c0.102,0.376,0.292,0.689,0.565,0.936c0.278,0.251,0.675,0.4,1.19,0.444
		c0.064,0.002,0.127,0.004,0.188,0.004c0.277,0,0.536-0.026,0.771-0.08c0.289-0.066,0.562-0.168,0.812-0.3
		c0.253-0.13,0.508-0.3,0.759-0.504c0.101-0.082,0.206-0.169,0.314-0.264l-0.041,0.819l0.042,0.069
		c0.072,0.119,0.207,0.167,0.316,0.195c0.109,0.029,0.222,0.046,0.368,0.048c0.115,0,0.222-0.018,0.319-0.055
		c0.179-0.069,0.282-0.226,0.277-0.429c-0.033-0.531-0.049-1.061-0.048-1.573C57.313,47.438,57.316,46.924,57.32,46.412z"/>
	<path d="M65.325,48.876c-0.053-0.054-0.11-0.1-0.171-0.138c-0.035-0.02-0.064-0.039-0.124-0.082
		c-0.826-0.442-1.526-0.816-2.101-1.115c-0.577-0.301-1.056-0.548-1.439-0.741c-0.384-0.194-0.688-0.347-0.909-0.454
		c-0.147-0.071-0.269-0.132-0.366-0.181c0.135-0.062,0.289-0.127,0.462-0.198c0.201-0.083,0.412-0.168,0.634-0.254
		c0.222-0.087,0.437-0.167,0.645-0.246c0.211-0.078,0.398-0.149,0.565-0.215c0.17-0.068,0.296-0.12,0.374-0.158
		c0.55-0.249,0.926-0.481,1.15-0.714c0.259-0.268,0.371-0.533,0.333-0.79c-0.038-0.251-0.199-0.466-0.479-0.64
		c-0.232-0.144-0.523-0.261-0.867-0.35c-0.33-0.085-0.698-0.145-1.094-0.177c-0.4-0.032-0.792-0.032-1.173,0.005
		c-0.384,0.033-0.745,0.104-1.074,0.207c-0.233,0.074-0.435,0.171-0.603,0.286c-0.072-0.082-0.151-0.15-0.237-0.203
		c-0.095-0.06-0.198-0.09-0.307-0.09l-0.1,0.008c-0.162,0.028-0.296,0.144-0.401,0.343l-0.041,0.076l0.013,0.086
		c0.085,0.592,0.144,1.167,0.174,1.706c0.03,0.546,0.049,1.056,0.055,1.525l0.014,1.291c0.003,0.396,0.02,0.739,0.048,1.022
		c0.032,0.312,0.091,0.895,0.179,1.069c0.116,0.233,0.313,0.704,0.582,0.704c0,0,0.001,0,0.002,0l0.109-0.347
		c0.07-0.004,0.142-0.185,0.203-0.2c0.084-0.02,0.165-0.14,0.245-0.195c0.113-0.081,0.174-0.251,0.17-0.397l-0.062-2.085
		c0.164,0.066,0.338,0.138,0.521,0.23c0.331,0.166,0.667,0.349,1.011,0.555c0.346,0.206,0.688,0.418,1.023,0.634
		c0.338,0.219,0.652,0.416,0.938,0.595c0.29,0.178,0.54,0.323,0.75,0.439c0.25,0.139,0.423,0.201,0.561,0.201l0.225-0.008
		c0.101-0.003,0.203-0.016,0.306-0.041c0.11-0.026,0.208-0.069,0.292-0.128c0.129-0.091,0.199-0.23,0.193-0.396
		c-0.003-0.103-0.036-0.201-0.097-0.288C65.417,48.977,65.374,48.925,65.325,48.876z M62.505,43.904
		c-0.191,0.12-0.409,0.241-0.649,0.361c-0.245,0.12-0.503,0.238-0.773,0.349c-0.271,0.112-0.525,0.209-0.763,0.288
		c-0.236,0.079-0.44,0.14-0.609,0.181c-0.076,0.019-0.129,0.026-0.165,0.031c-0.014-0.024-0.029-0.058-0.046-0.103
		c-0.041-0.109-0.072-0.227-0.093-0.353c-0.021-0.119-0.027-0.236-0.018-0.349c0.008-0.115,0.033-0.175,0.042-0.194
		c0.043-0.062,0.126-0.123,0.241-0.175c0.146-0.065,0.32-0.122,0.516-0.167c0.197-0.046,0.417-0.082,0.653-0.104
		c0.24-0.025,0.474-0.045,0.701-0.055c0.228-0.015,0.44-0.021,0.64-0.024c0.19-0.004,0.349-0.007,0.472-0.011
		c0.095,0.016,0.159,0.033,0.199,0.046C62.785,43.706,62.668,43.8,62.505,43.904z"/>
	<path d="M72.771,44.787c-0.017-0.446-0.034-0.856-0.051-1.234c-0.017-0.375-0.028-0.675-0.035-0.896
		c-0.002-0.058,0-0.142,0.004-0.255c0.005-0.138-0.004-0.276-0.028-0.415c-0.026-0.15-0.076-0.286-0.148-0.404
		c-0.101-0.16-0.268-0.249-0.492-0.249c0,0,0,0-0.001,0c-0.184,0.004-0.339,0.053-0.463,0.141c-0.116,0.083-0.216,0.215-0.307,0.403
		l-0.064,4.708c-0.4-0.489-0.758-0.935-1.075-1.337c-0.436-0.554-0.808-1.038-1.116-1.448l-0.776-1.038
		c-0.211-0.282-0.385-0.512-0.522-0.687c-0.151-0.191-0.275-0.324-0.377-0.407c-0.133-0.107-0.269-0.163-0.415-0.163c0,0,0,0,0,0
		c-0.138,0.004-0.269,0.063-0.39,0.177c-0.073,0.069-0.167,0.161-0.28,0.273l-0.087,0.088l0.008,0.123
		c0.02,0.288,0.036,0.621,0.047,0.997c0.011,0.378,0.021,0.779,0.028,1.198c0.007,0.417,0.011,0.854,0.013,1.3
		c0.002,0.443-0.001,0.889-0.008,1.306c-0.008,0.418-0.02,0.841-0.035,1.218c-0.018,0.377-0.039,0.762-0.064,1.062
		c-0.01,0.282,0.071,0.708,0.242,0.796c0.102,0.052,0.22,0.417,0.354,0.417h0.032c0.132,0,0.251-0.363,0.353-0.396
		c0.113-0.037,0.229-0.385,0.354-0.502l0.081-0.109l0.004-0.126c0.01-0.249,0.013-0.543,0.009-0.861
		c-0.003-0.316-0.011-0.651-0.021-0.999c-0.011-0.344-0.02-0.696-0.028-1.052c-0.008-0.354-0.01-0.699-0.005-1.035
		c0.003-0.33,0.015-0.645,0.034-0.938c0.001-0.026,0.003-0.055,0.005-0.081c0.204,0.282,0.419,0.566,0.645,0.847
		c0.374,0.47,0.751,0.938,1.131,1.41c0.378,0.471,0.747,0.937,1.106,1.401c0.348,0.451,0.667,0.911,0.947,1.366l0.073,0.119
		l1.108,0.063l0.072-0.174c0.07-0.168,0.118-0.418,0.146-0.768c0.023-0.323,0.039-0.696,0.044-1.121
		c0.005-0.42,0.001-0.867-0.011-1.339C72.801,45.692,72.787,45.233,72.771,44.787z M66.495,49.46
		c0.001,0.001,0.001,0.003,0.003,0.004c0.005,0.003,0.014,0.001,0.019,0.004l-0.022,0.045V49.46z"/>
	<path d="M74.398,42.75c-0.085-0.03-0.175-0.028-0.266-0.043c-0.126,0.005-0.242,0.035-0.346,0.093
		c-0.068,0.038-0.147,0.086-0.237,0.144l-0.124,0.083l0.002,0.146l-0.002,0.229c-0.001,0.151,0.17,0.348,0.163,0.595
		c-0.007,0.251,0.161,0.536,0.161,0.862c0,0.323,0,0.658,0,1.007c0,0.346-0.169,0.687-0.164,1.03
		c0.005,0.347-0.071,0.664-0.053,0.955c0.017,0.294-0.005,0.543,0.019,0.761c0.029,0.252,0.047,0.412,0.106,0.526l0.024,0.049
		l0.063-0.005c0.093,0.054,0.173,0.01,0.245,0.044c0.058,0.028,0.118-0.013,0.183-0.051c0.051,0.015,0.099,0.032,0.159,0.03
		c0.035-0.001,0.075-0.015,0.113-0.027c0.051,0.04,0.102,0.081,0.151,0.06c0.164-0.065,0.258-0.041,0.252-0.229l-0.178-5.87
		C74.667,42.956,74.565,42.811,74.398,42.75z M73.956,49.205v-0.123c0.027,0.015,0.053,0.029,0.078,0.041L73.956,49.205z"/>
	<path d="M82.25,45.892l-0.122-0.031c-0.744-0.189-1.384-0.352-1.922-0.485c-0.539-0.137-0.995-0.248-1.367-0.338l-1.42-0.336
		c-0.032-0.008-0.062-0.016-0.086-0.022c0.019-0.046,0.048-0.088,0.087-0.127c0.107-0.106,0.253-0.201,0.434-0.282
		c0.194-0.088,0.42-0.164,0.675-0.23c0.261-0.067,0.527-0.127,0.8-0.18c0.277-0.054,0.546-0.103,0.808-0.147
		c0.275-0.046,0.518-0.101,0.734-0.159c0.232-0.065,0.417-0.14,0.561-0.229c0.252-0.151,0.301-0.346,0.302-0.473
		c0.03-0.175-0.038-0.332-0.186-0.426c-0.084-0.054-0.185-0.094-0.311-0.123c-0.103-0.022-0.207-0.038-0.31-0.044
		c-0.092-0.005-0.121-0.016-0.121-0.016l-0.061-0.022l-0.064,0.007c-0.146,0.016-0.371,0.052-0.672,0.108
		c-0.295,0.055-0.628,0.134-0.989,0.236c-0.35,0.098-0.723,0.222-1.109,0.37c-0.384,0.146-0.739,0.318-1.057,0.51
		c-0.326,0.199-0.597,0.426-0.806,0.676c-0.232,0.28-0.345,0.59-0.335,0.924c0.004,0.126,0.054,0.251,0.145,0.36
		c0.069,0.083,0.152,0.157,0.249,0.224c0.087,0.06,0.179,0.112,0.275,0.16c0.105,0.049,0.188,0.081,0.278,0.104l4.249,0.814
		c-0.002,0.004-0.004,0.007-0.006,0.01c-0.083,0.118-0.221,0.251-0.414,0.392c-0.202,0.149-0.446,0.299-0.726,0.443
		c-0.281,0.146-0.579,0.272-0.885,0.378c-0.301,0.103-0.608,0.18-0.914,0.232c-0.287,0.047-0.55,0.054-0.775,0.025
		c-0.208-0.03-0.37-0.098-0.497-0.207c-0.113-0.097-0.175-0.248-0.19-0.46l-0.035-0.504l-0.397,0.313
		c-0.021,0.017-0.06,0.043-0.113,0.08c-0.069,0.05-0.142,0.108-0.216,0.179c-0.072,0.072-0.146,0.148-0.201,0.228
		c-0.079,0.114-0.133,0.238-0.129,0.363c0.005,0.167,0.042,0.408,0.338,0.618c0.186,0.131,0.338,0.241,0.578,0.327
		c0.229,0.082,0.136,0.146,0.375,0.187c0.215,0.035,0.049,0.052,0.049,0.052v-0.327c0,0.003-0.224,0.009-0.208,0.012
		c0.2,0.032,0.208,0.047,0.208,0.046v0.004l0.513,0.265c0.146,0,0.558-0.019,0.787-0.058c0.227-0.04,0.59-0.099,0.862-0.174
		c0.27-0.075,0.607-0.166,0.898-0.271c0.293-0.104,0.609-0.227,0.881-0.362c0.278-0.137,0.553-0.291,0.787-0.458
		c0.245-0.176,0.456-0.362,0.616-0.562c0.17-0.213,0.283-0.445,0.327-0.688c0.046-0.257,0.007-0.521-0.12-0.792L82.25,45.892z"/>
	<path d="M89.173,47.301c-0.082-0.342-0.14-0.699-0.172-1.055l-0.044-0.614c-0.02-0.278-0.041-0.592-0.062-0.939l-0.203-3.15
		c-0.017-0.274-0.027-0.482-0.031-0.612l-0.007-0.239l-0.229-0.115c-0.039-0.004-0.09-0.115-0.15-0.115h-0.083
		c-0.094,0-0.189,0.123-0.283,0.139c-0.105,0.018-0.199,0.118-0.289,0.155c-0.169,0.073-0.239,0.204-0.267,0.287l-0.017,0.053
		l0.1,3.272c-0.055,0.022-0.127,0.049-0.222,0.073c-0.18,0.043-0.38,0.083-0.598,0.114c-0.222,0.031-0.452,0.058-0.688,0.075
		c-0.239,0.02-0.456,0.032-0.655,0.041c-0.183,0.009-0.338,0.014-0.468,0.018l-0.031-3.095L84.755,41.5
		c-0.1-0.256-0.276-0.311-0.363-0.319l-0.069-0.005c-0.094,0-0.192,0.025-0.289,0.076c-0.087,0.045-0.175,0.108-0.266,0.193
		c-0.072,0.069-0.13,0.132-0.173,0.186l-0.062,0.076l0.002,0.099c0.002,0.071,0.001,0.182-0.002,0.333l-0.029,1.166
		c-0.006,0.22-0.012,0.429-0.02,0.626l-0.036,0.873c-0.005,0.062-0.023,0.119-0.058,0.176c-0.048,0.08-0.101,0.154-0.157,0.225
		c-0.067,0.084-0.128,0.166-0.184,0.248c-0.084,0.124-0.124,0.251-0.121,0.383c0.006,0.19,0.107,0.341,0.278,0.413
		c0.044,0.019,0.09,0.035,0.14,0.049l0.505,3.088l1.344-0.732l-0.048-0.198c-0.108-0.448-0.183-0.894-0.224-1.326
		c-0.035-0.365-0.045-0.728-0.031-1.079c0.228-0.081,0.429-0.144,0.612-0.19c0.225-0.058,0.448-0.099,0.663-0.121
		c0.221-0.023,0.447-0.037,0.679-0.041l0.551-0.009c0.031,0.447,0.085,0.912,0.16,1.386c0.092,0.578,0.251,1.129,0.474,1.636
		l0.072,0.165l0.18-0.005c0.272-0.009,0.489-0.035,0.663-0.083c0.165-0.044,0.325-0.097,0.48-0.155l0.296-0.113l-0.162-0.272
		C89.382,47.946,89.252,47.628,89.173,47.301z"/>
	<path d="M96.286,47.178c-0.429,0.012-0.845,0.041-1.236,0.085c-0.381,0.043-0.768,0.087-1.158,0.135
		c-0.389,0.046-0.799,0.091-1.229,0.136c-0.365,0.037-0.76,0.063-1.178,0.08l-0.081-1.253l4.067-0.636l-0.033-1.083l-0.266,0.008
		c-0.363,0.01-0.727,0.04-1.08,0.089c-0.344,0.048-0.687,0.102-1.027,0.162c-0.335,0.058-0.674,0.11-1.016,0.157
		c-0.253,0.035-0.512,0.061-0.771,0.075c-0.006-0.115-0.013-0.218-0.021-0.309c-0.013-0.157-0.026-0.295-0.039-0.413
		c-0.011-0.113-0.02-0.217-0.026-0.317c-0.005-0.094-0.006-0.193,0-0.304c0.004-0.109,0.015-0.241,0.033-0.393
		c0.013-0.113,0.032-0.245,0.059-0.399c0.234-0.048,0.499-0.085,0.789-0.108c0.377-0.031,0.756-0.055,1.134-0.069
		c0.383-0.014,0.744-0.028,1.082-0.044c0.336-0.016,0.615-0.043,0.828-0.08l0.228-0.038l-0.028-0.951l-0.179-0.058
		c-0.167-0.056-0.384-0.087-0.662-0.102c-0.258-0.014-0.544-0.016-0.857-0.006c-0.308,0.01-0.633,0.025-0.976,0.048
		c-0.338,0.02-0.662,0.039-0.971,0.055c-0.59,0.028-1.123,0.038-1.398-0.024l-0.334-0.078l0.179,7.466l1.479-0.168
		c0.453-0.05,0.924-0.105,1.411-0.163l1.443-0.172c0.443-0.053,0.851-0.106,1.223-0.161c0.125,0.053,0.266,0.041,0.387-0.027
		c0.103-0.057,0.195-0.139,0.271-0.24c0.072-0.096,0.128-0.202,0.167-0.314c0.043-0.123,0.063-0.23,0.06-0.327l-0.008-0.264
		L96.286,47.178z"/>
	<path d="M102.975,42.046c-0.247-0.186-0.532-0.336-0.85-0.444c-0.31-0.105-0.635-0.201-0.967-0.249
		c-0.32-0.044-0.651-0.086-1.012-0.086c0,0,0,0-0.001,0c-0.337,0-0.658,0.038-0.961,0.065c-0.3,0.029-0.583,0.083-0.841,0.139
		c-0.166,0.036-0.31,0.078-0.434,0.115c-0.035-0.03-0.074-0.053-0.117-0.073c-0.095-0.046-0.194-0.074-0.291-0.088
		c-0.081-0.013-0.157-0.018-0.276-0.019l-0.413,0.005l0.216,7.134l0.172,0.061c0.147,0.053,0.322,0.079,0.52,0.079
		c0.093,0,0.191-0.006,0.297-0.017c0.301-0.033,0.634-0.106,0.99-0.216c0.343-0.104,0.705-0.244,1.105-0.43
		c0.376-0.174,0.755-0.379,1.126-0.609c0.366-0.229,0.715-0.484,1.04-0.757c0.329-0.276,0.619-0.571,0.861-0.876
		c0.246-0.313,0.437-0.64,0.565-0.973c0.134-0.349,0.181-0.706,0.14-1.039c-0.013-0.389-0.098-0.729-0.253-1.012
		C103.436,42.478,103.229,42.24,102.975,42.046z M102.593,43.893c0.008,0.255-0.06,0.518-0.199,0.779
		c-0.148,0.28-0.352,0.554-0.604,0.815c-0.258,0.269-0.555,0.524-0.88,0.759c-0.338,0.242-0.678,0.452-1.01,0.625
		c-0.338,0.175-0.667,0.315-0.975,0.417c-0.183,0.06-0.35,0.103-0.499,0.129l-0.14-4.63c0.161-0.058,0.348-0.112,0.558-0.158
		c0.293-0.066,0.606-0.111,0.931-0.132c0.326-0.021,0.656-0.013,0.987,0.022c0.317,0.036,0.612,0.112,0.878,0.227
		c0.253,0.109,0.47,0.264,0.643,0.459C102.45,43.394,102.552,43.629,102.593,43.893z"/>
	<path d="M115.713,46.839c-0.124-0.23-0.239-0.468-0.347-0.716c-0.108-0.249-0.207-0.497-0.295-0.745l-0.141-0.396
		c0.068,0.001,0.122-0.015,0.221,0.002c0.135-0.001,0.25-0.016,0.348-0.044c0.141-0.037,0.257-0.113,0.335-0.219
		c0.092-0.123,0.117-0.286,0.08-0.436c-0.009-0.251-0.15-0.366-0.229-0.41c-0.094-0.056-0.208-0.088-0.336-0.101
		c-0.109-0.01-0.235-0.01-0.358,0.005c-0.194,0.02-0.328,0.067-0.586-0.044c-0.122-0.152-0.228-0.324-0.314-0.51
		c-0.092-0.199-0.179-0.398-0.261-0.604l-0.25-0.626c-0.086-0.216-0.189-0.429-0.305-0.63s-0.253-0.392-0.408-0.565
		c-0.162-0.18-0.363-0.335-0.598-0.463l-0.063-0.034l-0.072,0.003c-0.214,0.007-0.374,0.043-0.491,0.113
		c-0.124,0.073-0.215,0.178-0.274,0.312c-0.043,0.104-0.074,0.225-0.091,0.361c-0.012,0.098-0.036,0.205-0.072,0.317
		c-0.052,0.16-0.133,0.402-0.242,0.729l-1.254,3.713c-0.139,0.413-0.264,0.784-0.377,1.111l-0.245,0.718
		c-0.021,0.059-0.073,0.258,0.17,0.415c0.07,0.046,0.151,0.085,0.254,0.122c0.105,0.037,0.204,0.056,0.333,0.06
		c0.186,0,0.283-0.083,0.328-0.146c0.117-0.157,0.222-0.352,0.311-0.579c0.083-0.214,0.156-0.431,0.216-0.648
		c0.061-0.215,0.113-0.417,0.157-0.611l0.067-0.296l2.534-0.705l1.523,2.514l0.097-0.344h0.139c0.095,0,0.177,0.419,0.241,0.375
		c0.073-0.046,0.152,0.127,0.232,0.059c0.081-0.065,0.158-0.02,0.237-0.094c0.085-0.08,0.143-0.083,0.176-0.125l0.14-0.146
		l-0.15-0.153C115.959,47.229,115.833,47.058,115.713,46.839z M112.963,44.091c-0.099,0.043-0.201,0.087-0.306,0.132
		c-0.177,0.079-0.358,0.153-0.545,0.223c-0.183,0.068-0.37,0.124-0.562,0.17c-0.045,0.012-0.091,0.021-0.137,0.029
		c0.039-0.092,0.08-0.188,0.123-0.288c0.114-0.259,0.226-0.528,0.336-0.808c0.11-0.28,0.21-0.564,0.297-0.849
		c0.037-0.12,0.068-0.238,0.095-0.355c0.055,0.079,0.108,0.163,0.157,0.257c0.076,0.141,0.145,0.294,0.205,0.457
		c0.064,0.171,0.122,0.337,0.175,0.494c0.052,0.155,0.097,0.302,0.134,0.438C112.945,44.025,112.955,44.06,112.963,44.091z"/>
	<path d="M122.572,41.362c-0.195-0.093-0.416-0.168-0.657-0.224c-0.225-0.052-0.446-0.093-0.661-0.122
		c-0.216-0.029-0.412-0.295-0.593-0.301c-0.123-0.006-0.225-0.256-0.305-0.256h-0.098c-0.654,0-1.174,0.311-1.589,0.377
		c-0.443,0.068-0.794,0.297-1.072,0.441c-0.294,0.154-0.518,0.42-0.664,0.668c-0.138,0.233-0.237,0.551-0.293,0.89
		c-0.052,0.311-0.082,0.704-0.088,1.135c-0.004,0.412-0.017,0.893-0.042,1.442c0.007,0.442,0.019,0.87,0.034,1.276
		c0.015,0.406,0.029,0.815,0.041,1.226l0.048,0.308l0.305-0.054l0.086-0.355c0.067,0.003,0.136-0.354,0.208-0.354h0.103
		c0.117,0,0.224,0.341,0.321,0.315c0.234-0.062,0.311-0.056,0.306-0.186l-0.019-2.054c0.202-0.014,0.431,0.011,0.688-0.02
		c0.367-0.042,0.768-0.091,1.187-0.186c0.403-0.089,0.822-0.202,1.247-0.359c0.419-0.157,0.802-0.349,1.136-0.58
		c0.346-0.238,0.629-0.52,0.842-0.843c0.224-0.341,0.331-0.737,0.316-1.178c-0.008-0.24-0.093-0.449-0.254-0.628
		C122.965,41.592,122.786,41.463,122.572,41.362z M117.983,44.407c-0.036-0.021-0.058-0.044-0.072-0.08
		c-0.023-0.06-0.034-0.131-0.03-0.214c0.004-0.112,0.016-0.227,0.036-0.345c0.022-0.125,0.044-0.249,0.069-0.366
		c0.027-0.133,0.045-0.245,0.054-0.343c0.007-0.094,0.051-0.182,0.132-0.27c0.1-0.109,0.235-0.207,0.402-0.292
		c0.178-0.091,0.38-0.165,0.616-0.227c0.245-0.063,0.483-0.105,0.731-0.128c0.146-0.015,0.292-0.021,0.437-0.021
		c0.101,0,0.202,0.004,0.302,0.011c0.232,0.017,0.451,0.055,0.649,0.116c0.185,0.059,0.335,0.138,0.458,0.239
		c0.106,0.087,0.173,0.191,0.197,0.26c0.005,0.189-0.045,0.349-0.155,0.49c-0.128,0.164-0.299,0.31-0.507,0.434
		c-0.221,0.132-0.475,0.244-0.754,0.334c-0.289,0.094-0.579,0.17-0.864,0.225c-0.29,0.056-0.565,0.098-0.827,0.124
		c-0.258,0.028-0.468,0.045-0.666,0.054C118.077,44.426,117.99,44.41,117.983,44.407z"/>
	<path d="M130.418,46.393c-0.123-0.23-0.238-0.468-0.346-0.715c-0.107-0.249-0.207-0.497-0.295-0.747l-0.142-0.395
		c0.069,0.001,0.168-0.005,0.221,0.002c0.129-0.001,0.243-0.016,0.352-0.044c0.139-0.04,0.251-0.113,0.331-0.219
		c0.093-0.124,0.117-0.286,0.08-0.436c-0.009-0.252-0.15-0.367-0.227-0.408c-0.092-0.057-0.203-0.09-0.342-0.104
		c-0.109-0.009-0.231-0.007-0.355,0.006c-0.193,0.02-0.388,0.611-0.529,0.578l-0.055,0.549h-0.003c-0.12-1-0.226-0.909-0.312-1.096
		c-0.094-0.197-0.181-0.69-0.263-0.896l-0.25-0.771c-0.089-0.223-0.191-0.508-0.305-0.705c-0.117-0.201-0.253-0.429-0.407-0.601
		c-0.16-0.178-0.362-0.053-0.599-0.181l-0.063,0.25h-0.071c-0.218,0-0.373-0.26-0.494-0.188c-0.123,0.076-0.214,0.03-0.271,0.162
		c-0.045,0.106-0.074,0.15-0.091,0.285c-0.012,0.098-0.036,0.167-0.071,0.28l-2.121,6.259c-0.021,0.057-0.067,0.246,0.175,0.4
		c0.072,0.047,0.156,0.083,0.251,0.116c0.101,0.035,0.201,0.053,0.333,0.059c0.183,0,0.281-0.084,0.328-0.148
		c0.118-0.157,0.223-0.354,0.31-0.581c0.084-0.212,0.155-0.429,0.217-0.647c0.062-0.214,0.112-0.417,0.158-0.61l0.065-0.298
		l2.535-0.706l1.527,2.744l0.097-0.127h0.133c0.096,0,0.179,0.194,0.243,0.152c0.071-0.048,0.151,0.015,0.231-0.054
		c0.082-0.065,0.159-0.075,0.235-0.146c0.087-0.082,0.144-0.112,0.179-0.155l0.139-0.162l-0.149-0.159
		C130.665,46.79,130.537,46.611,130.418,46.393z M127.67,43.645c-0.101,0.043-0.202,0.087-0.306,0.132
		c-0.177,0.079-0.358,0.154-0.545,0.224c-0.183,0.066-0.371,0.123-0.564,0.17c-0.045,0.012-0.091,0.021-0.137,0.029
		c0.038-0.092,0.08-0.188,0.124-0.288c0.113-0.26,0.225-0.528,0.335-0.808c0.111-0.28,0.211-0.562,0.299-0.85
		c0.036-0.12,0.068-0.238,0.094-0.354c0.055,0.078,0.107,0.163,0.158,0.256c0.075,0.141,0.144,0.292,0.204,0.458
		c0.064,0.171,0.123,0.336,0.176,0.494c0.052,0.155,0.096,0.302,0.134,0.438C127.652,43.58,127.662,43.614,127.67,43.645z"/>
	<path d="M138.496,46.66c-0.052-0.052-0.109-0.099-0.174-0.139c-0.037-0.022-0.066-0.044-0.124-0.083
		c-0.826-0.442-1.525-0.815-2.101-1.116c-0.576-0.301-1.056-0.549-1.44-0.741c-0.383-0.195-0.686-0.345-0.907-0.454
		c-0.147-0.072-0.269-0.132-0.366-0.181c0.135-0.062,0.288-0.128,0.461-0.198c0.203-0.084,0.414-0.167,0.635-0.253
		c0.222-0.086,0.436-0.169,0.646-0.245c0.209-0.08,0.397-0.15,0.563-0.216c0.17-0.069,0.296-0.121,0.376-0.158
		c0.546-0.248,0.923-0.482,1.148-0.716c0.259-0.266,0.371-0.531,0.333-0.788c-0.036-0.252-0.198-0.467-0.479-0.641
		c-0.235-0.145-0.52-0.259-0.867-0.35c-0.327-0.085-0.695-0.145-1.096-0.178c-0.4-0.031-0.791-0.029-1.173,0.005
		c-0.386,0.037-0.747,0.106-1.074,0.21c-0.232,0.072-0.435,0.168-0.603,0.286c-0.071-0.082-0.148-0.149-0.236-0.206
		c-0.096-0.059-0.2-0.089-0.31-0.089l-0.102,0.009c-0.16,0.031-0.294,0.146-0.398,0.343l-0.039,0.076l0.013,0.085
		c0.085,0.597,0.144,1.172,0.174,1.706c0.03,0.547,0.048,1.057,0.055,1.525l0.014,1.292c0.003,0.396,0.02,0.739,0.048,1.022
		c0.031,0.311,0.09,0.547,0.179,0.726c0.117,0.233,0.318,0.386,0.583,0.359l0.108-0.003c0.068-0.003,0.137-0.014,0.21-0.03
		c0.083-0.02,0.161-0.054,0.242-0.108c0.11-0.083,0.169-0.208,0.167-0.354l-0.063-2.062c0.165,0.067,0.339,0.146,0.521,0.238
		c0.332,0.17,0.67,0.355,1.013,0.562c0.347,0.206,0.687,0.419,1.022,0.637c0.34,0.218,0.652,0.417,0.938,0.595
		c0.289,0.18,0.539,0.326,0.75,0.442c0.249,0.138,0.422,0.199,0.559,0.199l0.23-0.007c0.104-0.004,0.203-0.016,0.305-0.04
		c0.108-0.029,0.205-0.071,0.289-0.128c0.13-0.091,0.198-0.232,0.194-0.394c-0.003-0.103-0.033-0.198-0.098-0.291
		C138.585,46.757,138.542,46.706,138.496,46.66z M135.672,41.685c-0.191,0.121-0.408,0.242-0.648,0.361
		c-0.246,0.122-0.503,0.24-0.773,0.352c-0.271,0.11-0.526,0.206-0.763,0.287c-0.235,0.078-0.438,0.138-0.609,0.18
		c-0.075,0.018-0.13,0.026-0.165,0.031c-0.013-0.025-0.028-0.059-0.046-0.104c-0.041-0.108-0.071-0.226-0.094-0.35
		c-0.021-0.127-0.027-0.24-0.017-0.352c0.008-0.112,0.032-0.175,0.043-0.194c0.042-0.062,0.125-0.121,0.24-0.174
		c0.15-0.066,0.323-0.123,0.513-0.167c0.203-0.047,0.421-0.082,0.655-0.105c0.241-0.024,0.475-0.043,0.702-0.055
		c0.227-0.013,0.439-0.021,0.64-0.023c0.19-0.004,0.348-0.007,0.472-0.01c0.096,0.016,0.159,0.032,0.198,0.046
		C135.97,41.468,135.87,41.56,135.672,41.685z"/>
	<path d="M146.216,41.349c-0.013-0.089-0.03-0.175-0.053-0.256c-0.023-0.094-0.056-0.181-0.098-0.258
		c-0.084-0.153-0.194-0.21-0.273-0.229l-0.062-0.016l-0.061,0.014c-0.497,0.109-1.004,0.181-1.509,0.212
		c-0.422,0.027-0.845,0.041-1.269,0.041l-0.287-0.002c-0.523-0.006-1.048-0.025-1.57-0.056c-0.53-0.029-1.058-0.047-1.59-0.054
		c-0.181,0.004-0.34,0.101-0.446,0.271c-0.088,0.14-0.131,0.287-0.127,0.442c0.002,0.048,0.01,0.103,0.023,0.154
		c0.013,0.052,0.028,0.104,0.049,0.154c0.028,0.072,0.066,0.134,0.11,0.179c0.073,0.08,0.168,0.123,0.267,0.123l2.022,0.06
		l-0.174,5.331l1.576-0.171l-0.037-0.271c-0.028-0.208-0.044-0.445-0.046-0.73c-0.004-0.286-0.001-0.587,0.005-0.9
		c0.008-0.315,0.021-0.637,0.039-0.966l0.054-0.957c0.017-0.304,0.032-0.588,0.049-0.852c0.013-0.171,0.021-0.327,0.027-0.466
		c0.245-0.037,0.469-0.058,0.664-0.059l0.774-0.006c0.26-0.002,0.526-0.018,0.801-0.046c0.282-0.03,0.61-0.106,0.978-0.225
		l0.189-0.062l-0.006-0.199C146.236,41.505,146.229,41.436,146.216,41.349z"/>
	<path d="M155.21,45.153c-0.055-0.324-0.109-0.671-0.162-1.039l-0.169-1.139c-0.058-0.396-0.123-0.771-0.199-1.129
		c-0.075-0.358-0.158-0.688-0.249-0.991c-0.095-0.315-0.208-0.577-0.334-0.777c-0.153-0.237-0.337-0.387-0.549-0.44
		c-0.227-0.06-0.478,0.012-0.735,0.212l-1.928,3.554c-0.026-0.037-0.056-0.082-0.087-0.133c-0.126-0.202-0.255-0.439-0.387-0.71
		l-0.435-0.885c-0.154-0.319-0.318-0.625-0.491-0.916c-0.177-0.296-0.368-0.563-0.567-0.795c-0.217-0.25-0.455-0.437-0.71-0.555
		l-0.058-0.026l-0.062,0.002c-0.19,0.007-0.342,0.03-0.465,0.074c-0.148,0.053-0.268,0.141-0.352,0.26
		c-0.076,0.104-0.131,0.234-0.165,0.386c-0.026,0.124-0.05,0.271-0.067,0.431c-0.011,0.066-0.026,0.226-0.048,0.477
		c-0.021,0.244-0.051,0.536-0.085,0.883c-0.035,0.34-0.071,0.716-0.111,1.145l-0.117,1.231c-0.04,0.406-0.073,0.789-0.102,1.143
		c-0.029,0.35-0.055,0.647-0.078,0.881c-0.015,0.265,0.087,0.167,0.171,0.237c0.11,0.104,0.254-0.072,0.437-0.072
		c0.001,0,0.004,0,0.005,0c0.239,0,0.413,0.219,0.553,0.158c0.158-0.066,0.275-0.084,0.343-0.225c0.06-0.123,0.087-0.206,0.081-0.37
		c-0.003-0.132-0.013-0.241-0.025-0.399c-0.014-0.147-0.022-0.291-0.032-0.461c-0.008-0.159-0.001-0.315,0.022-0.505l0.025-0.599
		c0.01-0.235,0.022-0.485,0.037-0.75s0.031-0.533,0.051-0.811c0.02-0.274,0.044-0.531,0.071-0.771
		c0.011-0.11,0.023-0.216,0.038-0.315l1.745,3.43c0.085,0.267,0.18,0.472,0.288,0.625c0.117,0.168,0.233,0.281,0.356,0.348
		c0.154,0.085,0.32,0.097,0.454,0.042c0.135-0.052,0.242-0.155,0.308-0.299c0.38-0.801,0.702-1.459,0.968-1.973
		c0.265-0.51,0.486-0.912,0.656-1.196c0.11-0.18,0.193-0.305,0.256-0.389c0.003,0.062,0.007,0.129,0.01,0.206
		c0.015,0.103,0.04,0.263,0.074,0.478l0.122,0.721c0.044,0.267,0.09,0.545,0.136,0.839l0.319,2.061
		c0.055,0.218,0.165,0.123,0.332,0.25c0.159,0.119,0.326-0.094,0.495-0.094h0.021c0.141,0,0.341,0.215,0.497-0.023
		c0.114-0.178,0.14-0.273,0.072-0.604C155.324,45.615,155.265,45.474,155.21,45.153z M153.492,41.661h-0.06
		c-0.06,0-0.114-0.011-0.165-0.019c0.084-0.077,0.151-0.112,0.196-0.092c0.022,0.011,0.039,0.034,0.054,0.064L153.492,41.661z"/>
	<path d="M162.136,45.18c-0.433,0.014-0.848,0.043-1.234,0.087l-1.16,0.133c-0.389,0.047-0.799,0.092-1.229,0.137
		c-0.354,0.036-0.749,0.063-1.178,0.08l-0.08-1.252l4.066-0.637l-0.03-1.084l-0.268,0.008c-0.367,0.012-0.729,0.042-1.08,0.09
		c-0.344,0.05-0.687,0.103-1.026,0.163c-0.337,0.057-0.674,0.109-1.016,0.157c-0.248,0.034-0.507,0.061-0.771,0.074
		c-0.005-0.115-0.012-0.218-0.021-0.309c-0.011-0.142-0.023-0.267-0.037-0.411c-0.011-0.113-0.021-0.218-0.025-0.319
		c-0.007-0.093-0.007-0.194-0.001-0.304c0.003-0.11,0.015-0.24,0.031-0.392c0.014-0.113,0.034-0.246,0.061-0.4
		c0.228-0.046,0.492-0.084,0.788-0.109c0.379-0.031,0.756-0.053,1.135-0.067c0.304-0.012,0.596-0.024,0.871-0.035l0.209-0.01
		c0.342-0.017,0.621-0.042,0.83-0.08l0.227-0.04l-0.03-0.95l-0.18-0.058c-0.17-0.055-0.393-0.087-0.66-0.1
		c-0.259-0.013-0.545-0.015-0.857-0.006c-0.309,0.009-0.633,0.023-0.976,0.047c-0.338,0.021-0.663,0.038-0.971,0.056
		c-0.286,0.013-0.549,0.021-0.838,0.021c-0.213,0.01-0.428-0.017-0.56-0.047l-0.336-0.079l0.181,7.47l1.479-0.17
		c0.453-0.049,0.924-0.104,1.411-0.162l1.443-0.173c0.443-0.052,0.851-0.105,1.223-0.16c0.126,0.052,0.269,0.038,0.384-0.027
		c0.104-0.056,0.196-0.137,0.273-0.24c0.069-0.093,0.127-0.198,0.17-0.317c0.041-0.117,0.061-0.226,0.06-0.32l-0.004-0.271
		L162.136,45.18z"/>
	<path d="M169.358,41.858c-0.016-0.446-0.033-0.857-0.05-1.234c-0.018-0.376-0.029-0.672-0.035-0.896
		c-0.002-0.057-0.001-0.143,0.004-0.253c0.005-0.138-0.003-0.277-0.028-0.415c-0.026-0.154-0.076-0.29-0.147-0.404
		c-0.101-0.161-0.269-0.251-0.494-0.251h-0.001c-0.185,0.007-0.34,0.053-0.465,0.143c-0.115,0.084-0.215,0.215-0.304,0.401
		l-0.065,4.71c-0.398-0.491-0.757-0.937-1.074-1.34c-0.436-0.554-0.807-1.036-1.116-1.446l-0.774-1.04
		c-0.212-0.281-0.386-0.51-0.523-0.685c-0.145-0.184-0.271-0.378-0.379-0.466c-0.136-0.109-0.267-0.222-0.412-0.222c0,0,0,0-0.002,0
		c-0.137,0-0.267,0.121-0.391,0.236c-0.073,0.071-0.166,0.19-0.279,0.304l-0.087,0.101l0.01,0.129
		c0.02,0.287,0.035,0.623,0.047,0.999c0.011,0.378,0.021,0.779,0.027,1.197c0.008,0.419,0.012,0.853,0.014,1.297
		c0.003,0.444-0.001,0.879-0.008,1.298c-0.008,0.417-0.019,0.824-0.037,1.204c-0.017,0.375-0.036,0.726-0.062,1.026
		c-0.011,0.285,0.07,0.24,0.243,0.328c0.1,0.049,0.218-0.119,0.353-0.119h0.031c0.134,0,0.252,0.172,0.353,0.141
		c0.113-0.039,0.229-0.05,0.355-0.166l0.081-0.01l0.004-0.076c0.01-0.251,0.014-0.521,0.009-0.838
		c-0.004-0.317-0.011-0.64-0.022-0.987c-0.01-0.344-0.019-0.688-0.026-1.045c-0.008-0.354-0.011-0.695-0.006-1.029
		c0.003-0.332,0.016-0.645,0.033-0.937c0.003-0.027,0.005-0.054,0.007-0.08c0.2,0.276,0.413,0.557,0.645,0.847l1.131,1.411
		c0.379,0.469,0.747,0.937,1.106,1.399c0.348,0.452,0.666,0.911,0.947,1.366l0.073,0.119l1.106,0.062l0.073-0.174
		c0.072-0.17,0.119-0.421,0.145-0.766c0.026-0.323,0.041-0.697,0.045-1.121c0.006-0.42,0.001-0.868-0.01-1.34
		C169.388,42.764,169.375,42.306,169.358,41.858z"/>
	<path d="M176.861,40.415c-0.013-0.086-0.029-0.171-0.053-0.255c-0.025-0.093-0.057-0.175-0.098-0.255
		c-0.067-0.123-0.159-0.2-0.272-0.229l-0.062-0.016l-0.062,0.014c-0.494,0.11-1.001,0.181-1.508,0.213
		c-0.421,0.027-0.844,0.041-1.268,0.041l-0.288-0.003c-0.524-0.006-1.049-0.024-1.57-0.054c-0.531-0.03-1.058-0.049-1.595-0.056
		c-0.179,0.007-0.336,0.104-0.443,0.273c-0.089,0.142-0.131,0.289-0.126,0.44c0.003,0.043,0.008,0.095,0.023,0.161
		c0.014,0.05,0.03,0.102,0.05,0.148c0.026,0.068,0.063,0.129,0.113,0.184c0.073,0.076,0.167,0.118,0.263,0.118l2.023,0.06
		l-0.177,5.331l1.576-0.171l-0.036-0.27c-0.027-0.214-0.044-0.46-0.046-0.732c-0.003-0.285,0-0.586,0.007-0.901
		c0.008-0.312,0.021-0.636,0.039-0.965l0.053-0.957c0.016-0.305,0.034-0.588,0.05-0.852c0.012-0.17,0.021-0.325,0.027-0.467
		c0.246-0.035,0.468-0.056,0.663-0.058l0.775-0.006c0.26-0.002,0.527-0.017,0.8-0.046c0.281-0.03,0.61-0.106,0.977-0.224
		l0.189-0.062l-0.006-0.199C176.879,40.577,176.873,40.509,176.861,40.415z"/>
	<path d="M183.861,42.926l-0.055-0.113l-0.214-0.056c-0.704-0.178-1.313-0.333-1.828-0.461c-0.541-0.138-0.996-0.249-1.368-0.337
		l-0.9-0.215c-0.225-0.051-0.399-0.094-0.521-0.123c-0.033-0.008-0.061-0.015-0.087-0.021c0.02-0.046,0.049-0.089,0.089-0.128
		c0.106-0.106,0.252-0.2,0.434-0.281c0.195-0.089,0.422-0.165,0.675-0.23c0.261-0.066,0.528-0.126,0.801-0.179
		c0.275-0.054,0.546-0.104,0.809-0.148c0.272-0.047,0.519-0.1,0.733-0.16c0.228-0.064,0.416-0.141,0.562-0.228
		c0.25-0.154,0.299-0.347,0.3-0.473c0.029-0.176-0.037-0.333-0.189-0.43c-0.088-0.053-0.19-0.093-0.303-0.117
		c-0.104-0.025-0.21-0.039-0.312-0.045c-0.095-0.007-0.123-0.017-0.124-0.017l-0.061-0.022l-0.063,0.007
		c-0.146,0.016-0.371,0.052-0.672,0.107c-0.31,0.06-0.643,0.139-0.987,0.237c-0.353,0.098-0.725,0.223-1.11,0.37
		c-0.385,0.147-0.74,0.318-1.058,0.511c-0.325,0.197-0.596,0.424-0.805,0.674c-0.231,0.277-0.345,0.588-0.336,0.924
		c0.004,0.127,0.053,0.249,0.146,0.364c0.072,0.084,0.156,0.159,0.248,0.222c0.088,0.06,0.179,0.112,0.276,0.16
		c0.103,0.047,0.19,0.081,0.275,0.103l4.249,0.815c-0.001,0.002-0.004,0.005-0.006,0.008c-0.085,0.121-0.224,0.253-0.414,0.393
		c-0.202,0.148-0.439,0.294-0.727,0.443c-0.282,0.147-0.58,0.274-0.885,0.377c-0.301,0.104-0.607,0.181-0.913,0.232
		c-0.287,0.047-0.546,0.058-0.777,0.024c-0.205-0.027-0.368-0.096-0.496-0.206c-0.11-0.097-0.174-0.247-0.189-0.46l-0.037-0.508
		l-0.395,0.32c-0.021,0.016-0.054,0.042-0.105,0.079c-0.069,0.047-0.139,0.108-0.211,0.178c-0.072,0.072-0.135,0.147-0.189,0.227
		c-0.081,0.114-0.111,0.237-0.107,0.366c0.007,0.166,0.089,0.407,0.385,0.616c0.189,0.132,0.435,0.242,0.672,0.325
		c0.23,0.085,0.529,0.147,0.765,0.188c0.122,0.021,0.3,0.034,0.438,0.042l0.002,0.01c0.026,0-0.301-0.003-0.272-0.005
		c0.062,0.004-0.252,0.005-0.252,0.005v-0.011c1-0.01,0.585-0.024,0.723-0.048c0.227-0.039,0.657-0.097,0.931-0.174
		c0.269-0.075,0.638-0.166,0.931-0.27c0.295-0.105,0.626-0.229,0.898-0.362s0.554-0.29,0.794-0.459
		c0.242-0.172,0.457-0.36,0.619-0.56c0.17-0.212,0.285-0.444,0.33-0.688C184.023,43.464,183.988,43.196,183.861,42.926z"/>
</g>
</svg>
