<?xml version="1.0" encoding="utf-8"?>
<!-- Generator: Adobe Illustrator 15.1.0, SVG Export Plug-In . SVG Version: 6.00 Build 0)  -->
<!DOCTYPE svg PUBLIC "-//W3C//DTD SVG 1.1//EN" "http://www.w3.org/Graphics/SVG/1.1/DTD/svg11.dtd">
<svg version="1.1" id="Layer_1" xmlns="http://www.w3.org/2000/svg" xmlns:xlink="http://www.w3.org/1999/xlink" x="0px" y="0px"
	 width="162.9px" height="52.5px" viewBox="0 -4.02 162.9 52.5" enable-background="new 0 -4.02 162.9 52.5" xml:space="preserve">
<g>
	<g>
		<path d="M82.295,7.278c-0.377-0.294-0.805-0.494-1.276-0.597C80.769,6.626,80.506,0,80.231,0c-0.293,0-0.574,6.629-0.839,6.689
			c-0.46,0.104-0.875,0.297-1.241,0.579c-0.792,0.608-0.958,1.326-0.958,1.821c0,0.733,0.333,1.372,0.961,1.848
			c0.576,0.436,1.274,0.658,2.076,0.658c0.804,0,1.5-0.223,2.071-0.661c0.782-0.602,0.947-1.319,0.947-1.814
			C83.249,8.402,82.919,7.765,82.295,7.278z"/>
	</g>
	<g>
		<polygon points="77.705,30.46 82.545,30.46 81.686,12.301 78.534,12.851 		"/>
	</g>
	<g>
		<path d="M71.694,30.817h-4.196V2.903l4.196-0.841V30.817z"/>
		<path d="M3.509,30.369L0,31.66V2.903l4.12-0.841v12.539c1.186-0.691,2.415-1.199,3.687-1.526c1.271-0.326,2.661-0.489,4.17-0.489
			c3.137,0,5.726,0.868,7.769,2.602c2.042,1.733,3.064,3.938,3.064,6.611c0,2.947-1.161,5.322-3.483,7.121
			c-2.323,1.799-5.391,2.699-9.206,2.699c-1.169,0-2.289-0.101-3.356-0.302C5.696,31.115,4.611,30.798,3.509,30.369z M4.12,27.942
			c1.068,0.392,2.098,0.688,3.089,0.89c0.992,0.203,1.945,0.305,2.861,0.305c2.56,0,4.624-0.662,6.193-1.986
			c1.567-1.323,2.351-3.081,2.351-5.271c0-2.086-0.695-3.756-2.084-5.007c-1.391-1.252-3.23-1.879-5.519-1.879
			c-1.187,0-2.339,0.197-3.458,0.587c-1.119,0.391-2.264,0.997-3.433,1.819V27.942z"/>
		<path d="M46.785,25.927l-0.229,3.169c-1.408,0.821-2.904,1.448-4.489,1.877c-1.585,0.431-3.208,0.646-4.869,0.646
			c-3.476,0-6.324-0.848-8.545-2.541c-2.221-1.697-3.332-3.867-3.332-6.515c0-2.96,1.183-5.396,3.547-7.306
			c2.365-1.911,5.344-2.866,8.939-2.866c3.204,0,5.734,0.74,7.59,2.22s2.785,3.505,2.785,6.073c0,0.079-0.009,0.2-0.026,0.362
			c-0.018,0.163-0.025,0.297-0.025,0.401l-0.484,0.802l-18.307,0.47c0.22,2.034,1.026,3.593,2.416,4.676
			c1.39,1.083,3.272,1.624,5.646,1.624c1.492,0,3.009-0.255,4.552-0.764C43.496,27.748,45.107,26.971,46.785,25.927z M44.369,20.039
			c-0.067-1.604-0.721-2.892-1.958-3.863c-1.237-0.972-2.839-1.458-4.806-1.458c-2.018,0-3.776,0.535-5.276,1.604
			c-1.5,1.069-2.412,2.458-2.734,4.166L44.369,20.039z"/>
		<path d="M56.392,30.817H52.17V13.193h4.12v2.68c1.407-1.095,2.874-1.911,4.399-2.445c1.526-0.535,3.153-0.802,4.882-0.802v3.169
			c-3.391,0.196-5.769,0.773-7.133,1.731c-1.365,0.958-2.047,2.546-2.047,4.763L56.392,30.817L56.392,30.817z"/>
		<path d="M92.636,30.817h-4.12V13.193h4.12v3.56c1.356-1.317,2.847-2.321,4.476-3.012c1.627-0.691,3.313-1.037,5.061-1.037
			c2.628,0,4.628,0.616,6.001,1.849c1.373,1.233,2.062,3.022,2.062,5.37v10.896h-4.096V20.313c0-1.669-0.395-2.892-1.182-3.667
			c-0.789-0.776-2.031-1.164-3.727-1.164c-2.457,0-4.504,0.649-6.141,1.946c-1.637,1.298-2.454,3.022-2.454,5.174V30.817z"/>
	</g>
</g>
<g>
	<path d="M136.465,9.574c-2.09-1.782-4.706-2.686-7.777-2.686c-3.203,0-5.912,0.849-8.055,2.523
		c-2.188,1.709-3.295,3.879-3.295,6.447c0,2.639,1.008,4.824,2.992,6.494c1.951,1.643,4.493,2.476,7.55,2.476
		c0.243,0,0.509-0.009,0.79-0.027c-1.136,1.144-2.166,2.111-3.181,2.984c-0.824,0.711-1.707,1.408-2.642,2.146
		c-0.797,0.627-1.619,1.079-2.484,1.797l-1.123,0.731h8.689l0.137,0.088c3.981-3.271,6.814-5.998,8.658-8.541
		c1.949-2.688,2.938-5.206,2.938-7.586C139.663,13.651,138.587,11.382,136.465,9.574z M124.938,13.051
		c1-0.846,2.186-1.258,3.625-1.258c1.396,0,2.555,0.411,3.539,1.256c0.955,0.82,1.422,1.782,1.422,2.941
		c0,1.171-0.461,2.137-1.41,2.95c-0.979,0.839-2.141,1.247-3.551,1.247c-1.439,0-2.625-0.411-3.625-1.257
		c-0.969-0.82-1.439-1.781-1.439-2.94C123.498,14.832,123.969,13.871,124.938,13.051z"/>
	<path d="M159.705,9.574c-2.09-1.782-4.708-2.686-7.78-2.686c-3.2,0-5.911,0.849-8.053,2.523c-2.187,1.709-3.296,3.879-3.296,6.447
		c0,2.639,1.007,4.824,2.99,6.494c1.953,1.643,4.492,2.476,7.551,2.476c0.244,0,0.509-0.009,0.792-0.027
		c-1.138,1.144-2.168,2.111-3.183,2.984c-0.824,0.711-1.707,1.408-2.642,2.146c-0.796,0.627-1.618,1.079-2.483,1.797l-1.123,0.731
		h8.688l0.138,0.088c3.982-3.272,6.814-5.998,8.658-8.541c1.949-2.688,2.938-5.206,2.938-7.586
		C162.9,13.651,161.825,11.382,159.705,9.574z M148.174,13.051c1.001-0.846,2.188-1.258,3.626-1.258c1.396,0,2.556,0.411,3.54,1.256
		c0.956,0.82,1.422,1.783,1.422,2.941c0,1.171-0.462,2.137-1.41,2.95c-0.979,0.839-2.142,1.247-3.552,1.247
		c-1.438,0-2.625-0.411-3.626-1.257c-0.967-0.82-1.439-1.781-1.439-2.94C146.734,14.832,147.208,13.871,148.174,13.051z"/>
</g>
<g>
	<polygon points="15.558,45.438 16.764,45.438 16.764,42.528 19.61,42.528 19.61,41.585 16.764,41.585 16.764,39.638 20.122,39.638 
		20.122,38.695 15.558,38.695 	"/>
	<path d="M26.121,42.65c0,0.375-0.043,0.69-0.13,0.939c-0.084,0.244-0.2,0.44-0.345,0.586c-0.145,0.144-0.318,0.248-0.513,0.311
		c-0.402,0.13-0.901,0.133-1.3,0.001c-0.188-0.062-0.355-0.167-0.496-0.311c-0.143-0.146-0.257-0.343-0.341-0.587
		c-0.086-0.249-0.13-0.564-0.13-0.939v-3.955h-1.206v3.936c0,0.533,0.072,0.991,0.213,1.361c0.143,0.373,0.344,0.681,0.596,0.913
		c0.251,0.233,0.556,0.403,0.904,0.504c0.337,0.098,0.708,0.147,1.099,0.147c0.391,0,0.761-0.05,1.099-0.147
		c0.348-0.101,0.652-0.271,0.904-0.504c0.252-0.232,0.452-0.54,0.595-0.913c0.141-0.37,0.213-0.828,0.213-1.361v-3.936h-1.161V42.65
		z"/>
	<path d="M34.257,41.947c0.326-0.326,0.492-0.766,0.492-1.307c0-0.355-0.07-0.662-0.209-0.911c-0.138-0.248-0.334-0.453-0.583-0.61
		c-0.245-0.152-0.537-0.263-0.868-0.328c-0.325-0.063-0.685-0.096-1.071-0.096h-2.47v6.743h1.206v-2.742h1.151l1.798,2.742h1.383
		l-1.932-2.878C33.604,42.435,33.975,42.229,34.257,41.947z M30.753,39.608h1.127c0.559,0,0.989,0.081,1.276,0.241
		c0.267,0.149,0.397,0.408,0.397,0.791s-0.133,0.658-0.406,0.843c-0.284,0.192-0.71,0.29-1.267,0.29h-1.127V39.608z"/>
	<path d="M41.089,42.175c0,0.345,0.016,0.699,0.046,1.055c0.017,0.199,0.033,0.395,0.047,0.587l-0.593-0.988l-2.746-4.134h-1.17
		v6.743h1.149v-3.521c0-0.345-0.014-0.692-0.04-1.034c-0.015-0.191-0.029-0.383-0.043-0.572l0.594,0.981l2.698,4.09l0.037,0.056
		h1.171v-6.743h-1.149V42.175z"/>
	<rect x="44.55" y="38.695" width="1.206" height="6.743"/>
	<path d="M52.446,42.388c-0.145-0.143-0.319-0.27-0.519-0.378c-0.193-0.104-0.401-0.197-0.619-0.279l-1.071-0.396
		c-0.142-0.052-0.286-0.109-0.432-0.172c-0.14-0.06-0.267-0.128-0.376-0.205c-0.105-0.073-0.192-0.159-0.259-0.255
		c-0.062-0.089-0.092-0.197-0.092-0.33c0-0.254,0.106-0.448,0.326-0.593c0.231-0.154,0.551-0.232,0.95-0.232
		c0.324,0,0.623,0.053,0.888,0.155s0.51,0.247,0.728,0.429l0.09,0.076l0.669-0.714l-0.095-0.085c-0.274-0.245-0.611-0.448-1-0.603
		c-0.388-0.153-0.819-0.231-1.281-0.231c-0.353,0-0.681,0.045-0.976,0.134c-0.298,0.091-0.562,0.219-0.783,0.381
		c-0.226,0.164-0.404,0.362-0.531,0.589c-0.127,0.23-0.192,0.48-0.192,0.744c0,0.257,0.05,0.487,0.15,0.685
		c0.097,0.193,0.227,0.364,0.387,0.508c0.157,0.14,0.331,0.258,0.515,0.354c0.187,0.097,0.37,0.179,0.542,0.244l1.067,0.403
		c0.17,0.07,0.33,0.14,0.487,0.207c0.148,0.065,0.271,0.134,0.375,0.21c0.098,0.07,0.176,0.157,0.232,0.256
		c0.053,0.097,0.081,0.218,0.081,0.36c0,0.276-0.117,0.494-0.357,0.666c-0.251,0.178-0.614,0.269-1.078,0.269
		c-0.376,0-0.739-0.071-1.079-0.213c-0.339-0.142-0.641-0.332-0.896-0.565l-0.089-0.081l-0.745,0.751l0.097,0.088
		c0.335,0.305,0.737,0.55,1.194,0.727c0.454,0.177,0.958,0.266,1.496,0.266c0.407,0,0.777-0.05,1.1-0.148
		c0.327-0.099,0.61-0.239,0.842-0.416c0.233-0.178,0.416-0.39,0.542-0.63c0.126-0.241,0.19-0.504,0.19-0.781
		c0-0.254-0.044-0.482-0.13-0.678C52.711,42.707,52.593,42.534,52.446,42.388z"/>
	<polygon points="59.073,41.417 55.852,41.417 55.852,38.695 54.646,38.695 54.646,45.438 55.852,45.438 55.852,42.379 
		59.073,42.379 59.073,45.438 60.269,45.438 60.269,38.695 59.073,38.695 	"/>
	<polygon points="63.786,42.379 66.608,42.379 66.608,41.426 63.786,41.426 63.786,39.638 67.132,39.638 67.132,38.695 
		62.58,38.695 62.58,45.438 67.246,45.438 67.246,44.486 63.786,44.486 	"/>
	<path d="M71.082,38.695H69.09v6.743h2.037c0.572,0,1.087-0.077,1.531-0.229c0.448-0.153,0.831-0.379,1.138-0.671
		c0.309-0.292,0.545-0.654,0.703-1.076c0.156-0.418,0.236-0.897,0.236-1.425c0-1.067-0.316-1.9-0.939-2.478
		C73.175,38.986,72.262,38.695,71.082,38.695z M70.296,39.618h0.717c0.842,0,1.474,0.207,1.88,0.616
		c0.407,0.409,0.613,1.016,0.613,1.803c0,0.788-0.207,1.405-0.615,1.834c-0.405,0.427-1.037,0.644-1.878,0.644h-0.717V39.618z"/>
	<path d="M81.07,38.695l-2.625,6.743h1.238l0.717-1.979h2.545l0.717,1.979h1.272l-2.624-6.743H81.07z M82.617,42.544h-1.886
		l0.303-0.822c0.129-0.363,0.254-0.725,0.376-1.086c0.089-0.265,0.179-0.535,0.268-0.809c0.09,0.273,0.179,0.544,0.269,0.809
		c0.122,0.361,0.247,0.723,0.377,1.086L82.617,42.544z"/>
	<path d="M90.674,39.134c-0.25-0.155-0.557-0.27-0.913-0.339c-0.349-0.066-0.736-0.101-1.15-0.101h-2.424v6.743h1.206v-2.574h1.218
		c0.419,0,0.807-0.043,1.151-0.128c0.353-0.085,0.659-0.216,0.912-0.388c0.259-0.177,0.462-0.401,0.604-0.669
		c0.142-0.269,0.213-0.588,0.213-0.949c0-0.376-0.072-0.699-0.214-0.96C91.134,39.507,90.931,39.293,90.674,39.134z M87.393,39.608
		h1.093c0.62,0,1.087,0.086,1.39,0.257c0.283,0.159,0.42,0.442,0.42,0.865c0,0.421-0.137,0.72-0.417,0.911
		c-0.292,0.199-0.76,0.3-1.393,0.3h-1.093V39.608z"/>
	<path d="M95.504,38.695h-1.242l-2.624,6.743h1.238l0.718-1.979h2.545l0.716,1.979h1.272l-2.593-6.663L95.504,38.695z M95.81,42.544
		h-1.886l0.303-0.822c0.129-0.363,0.255-0.726,0.376-1.086c0.09-0.265,0.18-0.534,0.269-0.809c0.09,0.274,0.18,0.544,0.27,0.808
		c0.12,0.361,0.246,0.724,0.376,1.087L95.81,42.544z"/>
	<path d="M104.09,41.947c0.326-0.327,0.491-0.767,0.491-1.307c0-0.356-0.07-0.663-0.21-0.911c-0.137-0.247-0.333-0.452-0.583-0.61
		c-0.245-0.152-0.537-0.263-0.867-0.328c-0.325-0.063-0.686-0.096-1.071-0.096h-2.47v6.743h1.205v-2.742h1.151l1.799,2.742h1.383
		l-1.932-2.878C103.437,42.435,103.808,42.229,104.09,41.947z M100.585,39.608h1.128c0.56,0,0.989,0.081,1.275,0.241
		c0.269,0.15,0.398,0.409,0.398,0.791s-0.133,0.657-0.407,0.843c-0.283,0.192-0.71,0.29-1.267,0.29h-1.128V39.608z"/>
	<polygon points="105.572,39.638 107.837,39.638 107.837,45.438 109.031,45.438 109.031,39.638 111.297,39.638 111.297,38.695 
		105.572,38.695 	"/>
	<path d="M116.576,42.257l-0.432,1.093l-1.919-4.655h-1.335v6.743h1.127V41.74c0-0.288-0.014-0.614-0.04-0.97
		c-0.008-0.104-0.016-0.205-0.023-0.304l1.812,4.318h0.713l1.467-3.473l0.343-0.837c-0.008,0.096-0.017,0.193-0.025,0.294
		c-0.029,0.348-0.045,0.675-0.045,0.971v3.698h1.148v-6.743h-1.324L116.576,42.257z"/>
	<polygon points="122.884,42.379 125.707,42.379 125.707,41.426 122.884,41.426 122.884,39.638 126.231,39.638 126.231,38.695 
		121.678,38.695 121.678,45.438 126.345,45.438 126.345,44.486 122.884,44.486 	"/>
	<path d="M132.605,42.175c0,0.349,0.016,0.703,0.045,1.055c0.018,0.199,0.033,0.395,0.049,0.587l-0.593-0.988l-2.747-4.134h-1.171
		v6.743h1.149v-3.521c0-0.341-0.014-0.688-0.04-1.034c-0.016-0.191-0.029-0.383-0.044-0.572l0.595,0.981l2.734,4.146h1.171v-6.743
		h-1.148V42.175z"/>
	<polygon points="135.36,39.638 137.625,39.638 137.625,45.438 138.82,45.438 138.82,39.638 141.085,39.638 141.085,38.695 
		135.36,38.695 	"/>
	<path d="M146.976,42.903c-0.085-0.196-0.203-0.369-0.351-0.515c-0.146-0.144-0.319-0.271-0.519-0.378
		c-0.194-0.104-0.402-0.197-0.619-0.279l-1.069-0.396c-0.143-0.052-0.287-0.109-0.433-0.172c-0.143-0.061-0.269-0.129-0.376-0.205
		c-0.104-0.073-0.191-0.158-0.259-0.255c-0.062-0.088-0.091-0.196-0.091-0.33c0-0.255,0.106-0.449,0.325-0.593
		c0.231-0.154,0.551-0.232,0.949-0.232c0.324,0,0.623,0.053,0.888,0.155s0.51,0.247,0.728,0.429l0.091,0.076l0.669-0.714
		l-0.096-0.085c-0.274-0.245-0.61-0.448-0.999-0.603c-0.389-0.153-0.819-0.231-1.28-0.231c-0.354,0-0.681,0.045-0.975,0.134
		c-0.299,0.091-0.562,0.219-0.783,0.381c-0.227,0.164-0.405,0.362-0.531,0.589c-0.128,0.229-0.192,0.479-0.192,0.744
		c0,0.256,0.051,0.486,0.15,0.685c0.097,0.192,0.227,0.363,0.387,0.508c0.157,0.139,0.331,0.258,0.516,0.353
		c0.183,0.097,0.365,0.179,0.542,0.245l1.066,0.403c0.173,0.072,0.337,0.143,0.487,0.207c0.149,0.066,0.272,0.135,0.375,0.21
		c0.098,0.07,0.176,0.156,0.231,0.256c0.054,0.098,0.081,0.219,0.081,0.36c0,0.276-0.117,0.494-0.357,0.666
		c-0.25,0.178-0.612,0.269-1.076,0.269c-0.376,0-0.739-0.071-1.079-0.213s-0.643-0.332-0.898-0.565l-0.088-0.081l-0.745,0.751
		l0.097,0.088c0.334,0.305,0.736,0.55,1.194,0.727c0.454,0.177,0.957,0.266,1.496,0.266c0.407,0,0.777-0.05,1.101-0.148
		c0.327-0.099,0.609-0.239,0.842-0.416c0.234-0.179,0.416-0.391,0.541-0.63c0.126-0.239,0.19-0.502,0.19-0.781
		C147.105,43.325,147.062,43.096,146.976,42.903z"/>
</g>
</svg>
